<svg width="70" height="70" viewBox="0 0 70 70" fill="none" xmlns="http://www.w3.org/2000/svg">
<path d="M35 5.83325C31.1698 5.83325 27.3771 6.58767 23.8384 8.05343C20.2998 9.51919 17.0845 11.6676 14.3761 14.376C8.90628 19.8458 5.83337 27.2644 5.83337 34.9999C5.83337 47.8916 14.2042 58.8291 25.7834 62.7082C27.2417 62.9416 27.7084 62.0374 27.7084 61.2499V56.3207C19.6292 58.0707 17.9084 52.4124 17.9084 52.4124C16.5667 49.0291 14.6709 48.1249 14.6709 48.1249C12.0167 46.3166 14.875 46.3749 14.875 46.3749C17.7917 46.5791 19.3375 49.3791 19.3375 49.3791C21.875 53.8124 26.1625 52.4999 27.825 51.7999C28.0875 49.9041 28.8459 48.6207 29.6625 47.8916C23.1875 47.1624 16.3917 44.6541 16.3917 33.5416C16.3917 30.3041 17.5 27.7083 19.3959 25.6374C19.1042 24.9083 18.0834 21.8749 19.6875 17.9374C19.6875 17.9374 22.1375 17.1499 27.7084 20.9124C30.0125 20.2708 32.5209 19.9499 35 19.9499C37.4792 19.9499 39.9875 20.2708 42.2917 20.9124C47.8625 17.1499 50.3125 17.9374 50.3125 17.9374C51.9167 21.8749 50.8959 24.9083 50.6042 25.6374C52.5 27.7083 53.6084 30.3041 53.6084 33.5416C53.6084 44.6832 46.7834 47.1332 40.2792 47.8624C41.3292 48.7666 42.2917 50.5458 42.2917 53.2583V61.2499C42.2917 62.0374 42.7584 62.9707 44.2459 62.7082C55.825 58.7999 64.1667 47.8916 64.1667 34.9999C64.1667 31.1697 63.4123 27.377 61.9465 23.8383C60.4808 20.2997 58.3324 17.0843 55.624 14.376C52.9156 11.6676 49.7003 9.51919 46.1616 8.05343C42.623 6.58767 38.8303 5.83325 35 5.83325Z" fill="#473131"/>
</svg>
