<svg width="56" height="60" viewBox="0 0 56 60" fill="none" xmlns="http://www.w3.org/2000/svg">
<g clip-path="url(#clip0_811_38)">
<path d="M18.9555 11.2558C18.8117 10.4399 19.3564 9.66195 20.1723 9.51809V9.51809C20.9881 9.37424 21.7661 9.91899 21.91 10.7348L22.3441 13.1969L19.3897 13.7178L18.9555 11.2558Z" fill="#5480AC"/>
<path d="M35.5991 39.0796L39.7367 36.6908C40.7996 36.0771 42.1588 36.4413 42.7725 37.5042V37.5042C43.1407 38.1419 42.9222 38.9574 42.2844 39.3256L37.377 42.1589L35.5991 39.0796Z" fill="#5480AC"/>
<path d="M24.6102 21.1626C25.2448 21.6952 26.191 21.6124 26.7235 20.9778V20.9778C27.256 20.3432 27.1732 19.397 26.5386 18.8645L24.4065 17.0755L22.4782 19.3736L24.6102 21.1626Z" fill="#5480AC"/>
<path d="M20.4271 10.5836C20.4831 10.5836 20.5274 10.6419 20.5601 10.7586C20.5927 10.8706 20.6627 11.1949 20.7701 11.7316C20.8727 12.2682 20.9241 12.5646 20.9241 12.6206C20.9241 12.6719 20.8984 12.7279 20.8471 12.7886C20.7957 12.8446 20.7491 12.8726 20.7071 12.8726C20.6184 12.8726 20.5274 12.6159 20.4341 12.1026C20.3361 11.5846 20.2871 11.2019 20.2871 10.9546C20.2871 10.7072 20.3337 10.5836 20.4271 10.5836Z" fill="black"/>
<path d="M21.4271 10.5836C21.4831 10.5836 21.5274 10.6419 21.5601 10.7586C21.5927 10.8706 21.6627 11.1949 21.7701 11.7316C21.8727 12.2682 21.9241 12.5646 21.9241 12.6206C21.9241 12.6719 21.8984 12.7279 21.8471 12.7886C21.7957 12.8446 21.7491 12.8726 21.7071 12.8726C21.6184 12.8726 21.5274 12.6159 21.4341 12.1026C21.3361 11.5846 21.2871 11.2019 21.2871 10.9546C21.2871 10.7072 21.3337 10.5836 21.4271 10.5836Z" fill="black"/>
<path d="M22.9774 19.0186C22.9494 19.0671 22.9778 19.1347 23.0625 19.2213C23.1431 19.3056 23.389 19.5284 23.8001 19.8896C24.2136 20.2469 24.4445 20.4395 24.493 20.4675C24.5375 20.4932 24.5988 20.499 24.677 20.4848C24.7512 20.4684 24.7988 20.442 24.8198 20.4056C24.8641 20.3288 24.6873 20.1217 24.2894 19.7842C23.8898 19.4403 23.5829 19.2065 23.3687 19.0829C23.1545 18.9592 23.0241 18.9378 22.9774 19.0186Z" fill="black"/>
<path d="M39.8008 36.7504C39.8285 36.7664 39.8338 36.8079 39.8166 36.875C39.8008 36.9398 39.7428 37.1203 39.6425 37.4165C39.54 37.7114 39.4808 37.8727 39.4648 37.9004C39.4501 37.9258 39.4214 37.9462 39.3786 37.9616C39.3372 37.9746 39.3061 37.9752 39.2854 37.9632C39.2415 37.9378 39.2698 37.7848 39.3703 37.5041C39.4698 37.2198 39.5549 37.0164 39.6255 36.894C39.6962 36.7716 39.7546 36.7237 39.8008 36.7504Z" fill="black"/>
<path d="M40.5772 36.7576C40.6119 36.7776 40.6185 36.8295 40.597 36.9133C40.5772 36.9943 40.5047 37.2199 40.3794 37.5902C40.2513 37.9589 40.1772 38.1605 40.1572 38.1951C40.1388 38.2269 40.103 38.2524 40.0495 38.2716C39.9978 38.2879 39.9589 38.2885 39.9329 38.2735C39.8781 38.2419 39.9135 38.0506 40.0391 37.6997C40.1634 37.3443 40.2698 37.0901 40.3581 36.9371C40.4465 36.7841 40.5195 36.7242 40.5772 36.7576Z" fill="black"/>
<path d="M23.9774 18.0186C23.9494 18.0671 23.9778 18.1347 24.0625 18.2213C24.1431 18.3056 24.389 18.5284 24.8001 18.8896C25.2136 19.2469 25.4445 19.4395 25.493 19.4675C25.5375 19.4932 25.5988 19.499 25.677 19.4848C25.7512 19.4684 25.7988 19.442 25.8198 19.4056C25.8641 19.3288 25.6873 19.1217 25.2894 18.7842C24.8898 18.4403 24.5829 18.2065 24.3687 18.0829C24.1545 17.9592 24.0241 17.9378 23.9774 18.0186Z" fill="black"/>
<path d="M31.7986 12.7904C32.9128 12.9663 34.0326 13.7504 35.1582 15.1428C36.2837 16.5351 36.9507 17.8222 37.1591 19.004C37.3616 20.1529 37.0003 21.6552 36.0752 23.5107C35.1828 25.3604 34.0163 27.1908 32.5755 29.0018C31.1348 30.8128 29.6825 32.5582 28.2186 34.2379C26.7817 35.879 25.5457 37.3155 24.5105 38.5473C23.5082 39.7733 23.0389 40.5669 23.1026 40.9279C23.1894 41.4204 23.479 41.6231 23.9714 41.5363C25.5799 41.2527 27.7938 40.6592 30.6131 39.7559C33.4267 38.8198 35.5392 38.2273 36.9508 37.9784C39.1502 37.5906 40.3512 37.9712 40.5538 39.1201C40.7332 40.1378 39.7801 41.3551 37.6945 42.7721C35.6089 44.1891 33.1409 45.4536 30.2907 46.5654C27.4675 47.6386 24.907 48.3778 22.6091 48.783C21.0006 49.0666 19.4221 48.4649 17.8737 46.9778C16.3581 45.485 15.4816 44.0656 15.2443 42.7197C15.007 41.3738 15.6879 39.4768 17.2871 37.0286C18.9133 34.5417 20.749 32.1872 22.7942 29.9649C24.8393 27.7427 26.7049 25.6537 28.3909 23.6979C30.1097 21.7363 30.9286 20.5257 30.8476 20.0661C30.5813 18.5561 28.4294 18.157 24.3916 18.869C23.0129 19.1121 21.8485 19.4189 20.8984 19.7895C19.9754 20.1215 19.3661 20.3136 19.0707 20.3657C18.1844 20.522 17.1746 20.0738 16.0412 19.0213C14.9079 17.9688 14.266 17.0158 14.1155 16.1623C13.965 15.3088 14.8205 14.4979 16.6821 13.7296C17.692 13.3146 19.0013 12.9653 20.6098 12.6817C24.1551 12.0566 27.8847 12.0928 31.7986 12.7904Z" fill="#1E548A"/>
<path d="M18.0951 18.3576C17.9151 18.3576 17.7484 18.3109 17.5951 18.2176C17.4417 18.1242 17.3184 18.0009 17.2251 17.8476C17.1317 17.6942 17.0851 17.5276 17.0851 17.3476C17.0851 17.1609 17.1317 16.9909 17.2251 16.8376C17.3184 16.6842 17.4417 16.5642 17.5951 16.4776C17.7484 16.3842 17.9151 16.3376 18.0951 16.3376C18.2884 16.3376 18.4617 16.3842 18.6151 16.4776C18.7684 16.5642 18.8884 16.6842 18.9751 16.8376C19.0684 16.9909 19.1151 17.1609 19.1151 17.3476C19.1151 17.5276 19.0684 17.6942 18.9751 17.8476C18.8884 18.0009 18.7684 18.1242 18.6151 18.2176C18.4617 18.3109 18.2884 18.3576 18.0951 18.3576Z" fill="black"/>
<path d="M18.1151 17.2876C18.0611 17.2876 18.0111 17.2736 17.9651 17.2456C17.9191 17.2176 17.8821 17.1806 17.8541 17.1346C17.8261 17.0886 17.8121 17.0386 17.8121 16.9846C17.8121 16.9286 17.8261 16.8776 17.8541 16.8316C17.8821 16.7856 17.9191 16.7496 17.9651 16.7236C18.0111 16.6956 18.0611 16.6816 18.1151 16.6816C18.1731 16.6816 18.2251 16.6956 18.2711 16.7236C18.3171 16.7496 18.3531 16.7856 18.3791 16.8316C18.4071 16.8776 18.4211 16.9286 18.4211 16.9846C18.4211 17.0386 18.4071 17.0886 18.3791 17.1346C18.3531 17.1806 18.3171 17.2176 18.2711 17.2456C18.2251 17.2736 18.1731 17.2876 18.1151 17.2876Z" fill="white"/>
<path d="M41.6051 38.6376C41.6051 38.6776 41.5634 38.7092 41.4801 38.7326C41.4001 38.7559 41.1684 38.8059 40.7851 38.8826C40.4017 38.9559 40.1901 38.9926 40.1501 38.9926C40.1134 38.9926 40.0734 38.9742 40.0301 38.9376C39.9901 38.9009 39.9701 38.8676 39.9701 38.8376C39.9701 38.7742 40.1534 38.7092 40.5201 38.6426C40.8901 38.5726 41.1634 38.5376 41.3401 38.5376C41.5167 38.5376 41.6051 38.5709 41.6051 38.6376Z" fill="black"/>
<path d="M41.5246 39.5552C41.5164 39.5778 41.4864 39.5871 41.4347 39.5831C41.3848 39.5799 41.2439 39.5605 41.012 39.5251C40.7808 39.4878 40.654 39.465 40.6314 39.4568C40.6108 39.4493 40.592 39.4307 40.5751 39.4012C40.56 39.3723 40.5556 39.3494 40.5617 39.3325C40.5747 39.2968 40.6914 39.2977 40.9119 39.3354C41.1348 39.3718 41.2961 39.4082 41.3957 39.4445C41.4953 39.4807 41.5383 39.5176 41.5246 39.5552Z" fill="black"/>
</g>
<defs>
<clipPath id="clip0_811_38">
<rect width="56" height="60" fill="white"/>
</clipPath>
</defs>
</svg>
