<svg width="60" height="45" viewBox="0 0 60 45" fill="none" xmlns="http://www.w3.org/2000/svg">
<path fill-rule="evenodd" clip-rule="evenodd" d="M54.999 0C57.759 0 60 2.238 60 5.001V39.999C60 42.759 57.762 45 54.999 45H5.001C2.241 45 0 42.762 0 39.999V5.001C0 2.241 2.238 0 5.001 0H54.999ZM21.504 26.484L6.774 41.04H52.749L38.178 26.634L30 32.295L21.504 26.484ZM55.92 14.376L41.532 24.324L55.92 38.532V14.376ZM4.083 14.559V38.067L18.141 24.174L4.083 14.559ZM54.951 3.963H5.094C4.82033 3.95077 4.55223 4.04299 4.344 4.221C4.25161 4.30374 4.18028 4.40732 4.13593 4.52315C4.09158 4.63898 4.07549 4.76371 4.089 4.887V9.747L30 27.468L55.932 9.573V5.097C55.934 4.697 55.842 4.405 55.656 4.221C55.5643 4.13018 55.4542 4.06014 55.3331 4.01563C55.2119 3.97111 55.0827 3.95316 54.954 3.963" fill="#645C5C"/>
</svg>
